<svg width="16" height="16" viewBox="0 0 16 16" fill="none" xmlns="http://www.w3.org/2000/svg">
<path fill-rule="evenodd" clip-rule="evenodd" d="M11.5353 3.46462C10.5943 2.54343 9.32787 2.03067 8.01103 2.03768C6.69419 2.04469 5.43328 2.57092 4.50213 3.50207C3.57097 4.43323 3.04474 5.69414 3.03773 7.01098C3.03072 8.32782 3.54348 9.59426 4.46467 10.5353C4.55847 10.6291 4.61116 10.7563 4.61116 10.889C4.61116 11.0216 4.55847 11.1488 4.46467 11.2426C4.37087 11.3364 4.24365 11.3891 4.111 11.3891C3.97835 11.3891 3.85113 11.3364 3.75733 11.2426C3.05963 10.5449 2.54477 9.6859 2.25835 8.74169C1.97193 7.79747 1.92279 6.79719 2.11529 5.82945C2.30779 4.8617 2.73598 3.95637 3.36194 3.19364C3.9879 2.43091 4.7923 1.83432 5.70389 1.45673C6.61549 1.07913 7.60613 0.932181 8.58809 1.02889C9.57004 1.1256 10.513 1.46299 11.3334 2.01117C12.1538 2.55935 12.8264 3.30139 13.2915 4.17159C13.7566 5.04178 14 6.01325 14 6.99995C14 7.13256 13.9473 7.25974 13.8536 7.3535C13.7598 7.44727 13.6326 7.49995 13.5 7.49995C13.3674 7.49995 13.2402 7.44727 13.1464 7.3535C13.0527 7.25974 13 7.13256 13 6.99995C13 5.71995 12.512 4.44062 11.5353 3.46462ZM10.1213 4.87862C9.55872 4.316 8.79566 3.99993 8 3.99993C7.20435 3.99993 6.44128 4.316 5.87867 4.87862C5.31605 5.44123 4.99998 6.2043 4.99998 6.99995C4.99998 7.7956 5.31605 8.55867 5.87867 9.12128C5.92779 9.16706 5.96719 9.22226 5.99452 9.28359C6.02185 9.34492 6.03654 9.41113 6.03773 9.47827C6.03891 9.5454 6.02656 9.61209 6.00142 9.67435C5.97627 9.73661 5.93884 9.79316 5.89136 9.84064C5.84388 9.88812 5.78732 9.92555 5.72507 9.9507C5.66281 9.97585 5.59612 9.9882 5.52899 9.98701C5.46185 9.98583 5.39564 9.97113 5.33431 9.9438C5.27298 9.91648 5.21778 9.87707 5.172 9.82795C4.70675 9.36284 4.3634 8.79016 4.17236 8.16064C3.98133 7.53112 3.94851 6.8642 4.07681 6.21897C4.20512 5.57374 4.49058 4.97011 4.90792 4.46157C5.32526 3.95302 5.86159 3.55526 6.46938 3.30353C7.07718 3.05179 7.73768 2.95385 8.39238 3.01839C9.04707 3.08292 9.67574 3.30793 10.2227 3.67349C10.7696 4.03905 11.218 4.53386 11.528 5.1141C11.838 5.69434 12.0001 6.34208 12 6.99995C12 7.13256 11.9473 7.25974 11.8536 7.3535C11.7598 7.44727 11.6326 7.49995 11.5 7.49995C11.3674 7.49995 11.2402 7.44727 11.1464 7.3535C11.0527 7.25974 11 7.13256 11 6.99995C11 6.23128 10.7067 5.46462 10.1213 4.87862ZM7.69867 5.75462C7.80002 5.72744 7.90735 5.73284 8.00546 5.77005C8.10358 5.80726 8.18749 5.8744 8.24533 5.96195L11.7307 11.24C11.7852 11.3225 11.814 11.4194 11.8135 11.5184C11.8129 11.6173 11.783 11.7139 11.7276 11.7958C11.6721 11.8778 11.5936 11.9414 11.5019 11.9787C11.4102 12.016 11.3096 12.0252 11.2127 12.0053L9.81467 11.7186L10.5113 14.3186C10.5456 14.4468 10.5276 14.5834 10.4612 14.6983C10.3948 14.8132 10.2855 14.897 10.1573 14.9313C10.0291 14.9656 9.89258 14.9476 9.77768 14.8812C9.66279 14.8148 9.57897 14.7055 9.54467 14.5773L8.84867 11.9779L7.78133 12.9246C7.70737 12.9904 7.61554 13.0327 7.51748 13.0463C7.41943 13.0598 7.31956 13.044 7.23053 13.0007C7.14151 12.9574 7.06732 12.8887 7.01738 12.8032C6.96744 12.7178 6.94399 12.6194 6.95 12.5206L7.32933 6.20728C7.33553 6.10252 7.37454 6.00236 7.44082 5.921C7.50711 5.83964 7.59732 5.78119 7.69867 5.75395V5.75462Z" fill="black"/>
</svg>
